<svg width="22" height="22" viewBox="0 0 22 22" fill="none" xmlns="http://www.w3.org/2000/svg">
<g id="Group 485800">
<path id="Vector" d="M20.7051 5.84663L11.6298 1.15298C11.4352 1.05245 11.2194 1 11.0004 1C10.7814 1 10.5656 1.05245 10.371 1.15298L1.29577 5.84663C1.20664 5.89281 1.13191 5.9626 1.07975 6.04839C1.02759 6.13418 1 6.23266 1 6.33307C1 6.43348 1.02759 6.53196 1.07975 6.61775C1.13191 6.70354 1.20664 6.77333 1.29577 6.81951L10.371 11.5158C10.5656 11.6164 10.7814 11.6688 11.0004 11.6688C11.2194 11.6688 11.4352 11.6164 11.6298 11.5158L20.7051 6.82484C20.7942 6.77867 20.8689 6.70887 20.9211 6.62308C20.9733 6.5373 21.0008 6.43882 21.0008 6.3384C21.0008 6.23799 20.9733 6.13951 20.9211 6.05372C20.8689 5.96794 20.7942 5.89814 20.7051 5.85196V5.84663Z" stroke="#4F4F4F" stroke-width="1.25" stroke-linecap="round" stroke-linejoin="round"/>
<path id="Vector_2" d="M4.86668 8.66016L1.29577 10.5081C1.20664 10.5543 1.13191 10.6241 1.07975 10.7099C1.02759 10.7956 1 10.8941 1 10.9945C1 11.0949 1.02759 11.1934 1.07975 11.2792C1.13191 11.365 1.20664 11.4348 1.29577 11.481L10.371 16.1773C10.5656 16.2778 10.7814 16.3303 11.0004 16.3303C11.2194 16.3303 11.4352 16.2778 11.6298 16.1773L20.7051 11.481C20.7942 11.4348 20.8689 11.365 20.9211 11.2792C20.9733 11.1934 21.0008 11.0949 21.0008 10.9945C21.0008 10.8941 20.9733 10.7956 20.9211 10.7099C20.8689 10.6241 20.7942 10.5543 20.7051 10.5081L17.1342 8.66016" stroke="#4F4F4F" stroke-width="1.25" stroke-linecap="round" stroke-linejoin="round"/>
<path id="Vector_3" d="M4.86668 13.332L1.29577 15.1773C1.20664 15.2235 1.13191 15.2933 1.07975 15.3791C1.02759 15.4648 1 15.5633 1 15.6637C1 15.7642 1.02759 15.8626 1.07975 15.9484C1.13191 16.0342 1.20664 16.104 1.29577 16.1502L10.371 20.8465C10.5656 20.947 10.7814 20.9995 11.0004 20.9995C11.2194 20.9995 11.4352 20.947 11.6298 20.8465L20.7051 16.1555C20.7942 16.1093 20.8689 16.0395 20.9211 15.9538C20.9733 15.868 21.0008 15.7695 21.0008 15.6691C21.0008 15.5687 20.9733 15.4702 20.9211 15.3844C20.8689 15.2986 20.7942 15.2288 20.7051 15.1826L17.1342 13.332" stroke="#4F4F4F" stroke-width="1.25" stroke-linecap="round" stroke-linejoin="round"/>
</g>
</svg>
