<svg width="24" height="24" viewBox="0 0 24 24" fill="none" xmlns="http://www.w3.org/2000/svg">
<rect width="24" height="24" rx="2" fill="#F4EBFF"/>
<g clip-path="url(#clip0_5682_229927)">
<path d="M7.5 6.41786C7.6556 6.14607 7.86656 5.91001 8.11922 5.72496C8.37188 5.53992 8.66061 5.41002 8.96668 5.34369C9.27275 5.27736 9.58935 5.27607 9.89595 5.33992C10.2025 5.40376 10.4923 5.53132 10.7465 5.71431C11.0006 5.8973 11.2135 6.13165 11.3713 6.40217C11.5291 6.67269 11.6283 6.97334 11.6625 7.28465C11.6966 7.59595 11.665 7.91097 11.5697 8.20928C11.4743 8.50759 11.3173 8.78253 11.1089 9.0163" stroke="#5922A1" stroke-linecap="round" stroke-linejoin="round"/>
<path d="M6.57031 7.21094V9.76594L8.80594 10.7241L9.76406 10.4047V7.84969L8.80594 8.16906L6.57031 7.21094Z" stroke="#5922A1" stroke-linecap="round" stroke-linejoin="round"/>
<path d="M10.405 12.3195L9.08534 12.8471C8.99852 12.8819 8.90512 12.8972 8.81174 12.8919C8.71837 12.8866 8.6273 12.8608 8.54496 12.8165L4.65625 10.7227V16.7908C4.65631 16.9061 4.68758 17.0192 4.74673 17.1182C4.80588 17.2171 4.89071 17.2982 4.99223 17.3529L8.54496 19.2691C8.6273 19.3135 8.71837 19.3392 8.81174 19.3445C8.90512 19.3498 8.99852 19.3346 9.08534 19.2998L10.405 18.7709V12.3195Z" stroke="#5922A1" stroke-linecap="round" stroke-linejoin="round"/>
<path d="M15.1719 5.78115C15.3275 5.50936 15.5384 5.27329 15.7911 5.08824C16.0438 4.9032 16.3325 4.7733 16.6386 4.70697C16.9446 4.64064 17.2612 4.63935 17.5678 4.7032C17.8744 4.76705 18.1642 4.8946 18.4183 5.07759C18.6725 5.26058 18.8854 5.49493 19.0432 5.76545C19.201 6.03597 19.3002 6.33662 19.3343 6.64793C19.3685 6.95924 19.3369 7.27425 19.2415 7.57256C19.1462 7.87087 18.9892 8.14581 18.7808 8.37958" stroke="#5922A1" stroke-linecap="round" stroke-linejoin="round"/>
<path d="M14.2344 6.57031V9.12531L16.47 10.0834L17.4281 9.76406V7.20906L16.47 7.52844L14.2344 6.57031Z" stroke="#5922A1" stroke-linecap="round" stroke-linejoin="round"/>
<path d="M18.7097 11.6789L17.39 12.2065C17.3032 12.2413 17.2098 12.2565 17.1164 12.2512C17.0231 12.246 16.932 12.2202 16.8496 12.1759L12.9609 10.082V16.1502C12.961 16.2654 12.9923 16.3786 13.0514 16.4775C13.1106 16.5765 13.1954 16.6576 13.2969 16.7123L16.8496 18.6253C16.932 18.6697 17.0231 18.6954 17.1164 18.7007C17.2098 18.706 17.3032 18.6907 17.39 18.656L18.7097 18.1303V11.6789Z" stroke="#5922A1" stroke-linecap="round" stroke-linejoin="round"/>
</g>
<defs> 
<clipPath id="clip0_5682_229927">
<rect width="16" height="16" fill="white" transform="translate(4 4)"/>
</clipPath>
</defs>
</svg>
