<svg width="24" height="24" viewBox="0 0 24 24" fill="none" xmlns="http://www.w3.org/2000/svg">
<rect width="24" height="24" rx="2" fill="#EBF4FF"/>
<g clip-path="url(#clip0_5682_229976)">
<path d="M19.1823 14.1953V18.397C19.1823 18.7416 18.903 19.0208 18.5585 19.0208H5.45969C5.1152 19.0208 4.83594 18.7416 4.83594 18.397V14.1953" stroke="#215BAA" stroke-linecap="round" stroke-linejoin="round"/>
<path d="M19.1823 14.1953H4.83594" stroke="#215BAA" stroke-linecap="round" stroke-linejoin="round"/>
<path d="M4.8125 7.78736V5.60422C4.8125 5.25973 5.09176 4.98047 5.43625 4.98047H18.5351C18.8796 4.98047 19.1588 5.25973 19.1588 5.60422V7.78736" stroke="#215BAA" stroke-linecap="round" stroke-linejoin="round"/>
<path d="M9.92299 10.8787C9.65806 11.2593 9.28346 11.5502 8.84908 11.7126L8.84106 14.1922H7.22734L7.23537 11.7078C6.802 11.5427 6.42921 11.2495 6.16664 10.8673C5.90408 10.485 5.7642 10.0318 5.76564 9.56807C5.76707 9.10432 5.90975 8.65203 6.17468 8.2714C6.43961 7.89078 6.81421 7.5999 7.24859 7.4375L7.2438 9.16861L8.04823 9.97789L8.85751 9.17346L8.86231 7.44234C9.29568 7.60743 9.66846 7.90063 9.93103 8.28288C10.1936 8.66514 10.3335 9.11831 10.332 9.58206C10.3306 10.0458 10.1879 10.4981 9.92299 10.8787Z" stroke="#215BAA" stroke-linecap="round" stroke-linejoin="round"/>
<path d="M11.3203 14.1919L11.3283 11.8477L13.3201 11.849V14.1919H11.3203Z" stroke="#215BAA" stroke-linecap="round" stroke-linejoin="round"/>
<path d="M11.4688 7.4375H13.1773V8.28181C13.1773 8.75363 12.7949 9.13611 12.3231 9.13611C11.8512 9.13611 11.4688 8.75363 11.4688 8.28181V7.4375Z" stroke="#215BAA" stroke-linejoin="round"/>
<path d="M12.3203 9.13672V11.8485" stroke="#215BAA" stroke-linecap="round" stroke-linejoin="round"/>
<path d="M17.1521 10.9131C17.8086 10.5924 18.2609 9.91814 18.2609 9.13823C18.2609 8.04793 17.377 7.16406 16.2867 7.16406C15.1964 7.16406 14.3125 8.04793 14.3125 9.13823C14.3125 9.94406 14.7953 10.6371 15.4874 10.9439L15.4829 14.1943H17.1521V10.9131Z" stroke="#215BAA" stroke-linejoin="round"/>
</g>
<defs>
<clipPath id="clip0_5682_229976">
<rect width="16" height="16" fill="white" transform="translate(4 4)"/>
</clipPath>
</defs>
</svg>
