<svg width="24" height="24" viewBox="0 0 24 24" fill="none" xmlns="http://www.w3.org/2000/svg">
<rect width="24" height="24" rx="12" fill="#F3F3F4"/>
<path d="M15.4922 16.7899H18.0689C18.4077 16.7899 18.7327 16.6553 18.9722 16.4158C19.2118 16.1762 19.3464 15.8513 19.3464 15.5124V10.1578C19.3465 9.86543 19.2462 9.58188 19.0624 9.3545C18.8786 9.12712 18.6224 8.96966 18.3365 8.9084L15.7011 8.34375" stroke="#4F4F4F" stroke-linecap="round" stroke-linejoin="round"/>
<path d="M5.295 8.48828H7.21125C7.21125 8.48828 7.85 8.48828 7.85 9.12703V16.792C7.85 16.792 7.85 17.4308 7.21125 17.4308H5.295C5.295 17.4308 4.65625 17.4308 4.65625 16.792V9.12703C4.65625 9.12703 4.65625 8.48828 5.295 8.48828Z" stroke="#4F4F4F" stroke-linecap="round" stroke-linejoin="round"/>
<path d="M10.8486 8.375L7.85156 9.12425" stroke="#4F4F4F" stroke-linecap="round" stroke-linejoin="round"/>
<path d="M16.294 10.4258L15.4566 7.49714C15.3804 7.23016 15.2193 6.99528 14.9976 6.82804C14.776 6.66081 14.5059 6.57034 14.2283 6.57031H12.3235C12.0459 6.57034 11.7758 6.66081 11.5542 6.82804C11.3325 6.99528 11.1714 7.23016 11.0952 7.49714L10.2578 10.4258" stroke="#4F4F4F" stroke-linecap="round" stroke-linejoin="round"/>
<path d="M9.125 13.2769C9.125 14.378 9.56243 15.4341 10.3411 16.2127C11.1197 16.9913 12.1757 17.4287 13.2769 17.4287C14.378 17.4287 15.4341 16.9913 16.2127 16.2127C16.9913 15.4341 17.4287 14.378 17.4287 13.2769C17.4287 12.7316 17.3214 12.1917 17.1127 11.688C16.9041 11.1843 16.5982 10.7266 16.2127 10.3411C15.8272 9.95552 15.3695 9.64969 14.8657 9.44104C14.362 9.23239 13.8221 9.125 13.2769 9.125C12.7316 9.125 12.1917 9.23239 11.688 9.44104C11.1843 9.64969 10.7266 9.95552 10.3411 10.3411C9.95552 10.7266 9.64969 11.1843 9.44104 11.688C9.23239 12.1917 9.125 12.7316 9.125 13.2769Z" stroke="#4F4F4F" stroke-linecap="round" stroke-linejoin="round"/>
<path d="M7.85156 16.7891H11.067" stroke="#4F4F4F" stroke-linecap="round" stroke-linejoin="round"/>
</svg>
