<svg width="24" height="24" viewBox="0 0 24 24" fill="none" xmlns="http://www.w3.org/2000/svg">
<rect width="24" height="24" rx="2" fill="#F6FFEB"/>
<path d="M5.93375 7.21094C5.59494 7.21094 5.27 7.34553 5.03042 7.58511C4.79084 7.82469 4.65625 8.14962 4.65625 8.48844V11.4631C4.65628 11.5252 4.67443 11.586 4.70846 11.6379C4.7425 11.6899 4.79095 11.7308 4.84787 11.7556C5.32284 11.964 5.7107 12.3309 5.94522 12.7935C6.17973 13.2561 6.24635 13.7858 6.13368 14.2921L5.38123 17.6813C5.37091 17.728 5.37119 17.7764 5.38205 17.8229C5.39292 17.8694 5.41408 17.913 5.444 17.9502C5.47391 17.9875 5.51181 18.0176 5.55489 18.0382C5.59798 18.0589 5.64515 18.0697 5.69294 18.0697H9.1275L10.405 12.3209H17.7506C17.8353 12.3209 17.9166 12.2873 17.9765 12.2274C18.0364 12.1675 18.07 12.0863 18.07 12.0016V7.21094H5.93375Z" stroke="#60892A" stroke-linecap="round" stroke-linejoin="round"/>
<path d="M13.5964 12.3203L13.2489 13.3628C13.164 13.6174 13.0011 13.8389 12.7833 13.9958C12.5654 14.1527 12.3037 14.2369 12.0353 14.2366H9.97656" stroke="#60892A" stroke-linecap="round" stroke-linejoin="round"/>
</svg>
 