<svg width="24" height="24" viewBox="0 0 24 24" fill="none" xmlns="http://www.w3.org/2000/svg">
<rect width="24" height="24" rx="2" fill="#FFF3EB"/>
<g clip-path="url(#clip0_5425_229598)">
<path d="M10.0856 12.8885V11.9981C10.0856 11.8287 10.0183 11.6662 9.89854 11.5465C9.77875 11.4267 9.61628 11.3594 9.44688 11.3594H6.89188C6.72247 11.3594 6.56 11.4267 6.44021 11.5465C6.32042 11.6662 6.25313 11.8287 6.25313 11.9981V12.8885C5.61838 13.3016 5.13411 13.9088 4.87251 14.6195C4.6109 15.3302 4.58596 16.1064 4.80141 16.8325C5.01685 17.5585 5.46115 18.1955 6.06807 18.6485C6.67499 19.1014 7.41205 19.3462 8.16938 19.3462C8.9267 19.3462 9.66376 19.1014 10.2707 18.6485C10.8776 18.1955 11.3219 17.5585 11.5373 16.8325C11.7528 16.1064 11.7279 15.3302 11.4662 14.6195C11.2046 13.9088 10.7204 13.3016 10.0856 12.8885Z" stroke="#CB691A" stroke-linecap="round" stroke-linejoin="round"/>
<path d="M6.57031 15.8313C6.57031 16.2548 6.73855 16.6609 7.03803 16.9604C7.3375 17.2599 7.74367 17.4281 8.16719 17.4281C8.59071 17.4281 8.99688 17.2599 9.29635 16.9604C9.59582 16.6609 9.76406 16.2548 9.76406 15.8313C9.76406 15.4077 9.59582 15.0016 9.29635 14.7021C8.99688 14.4026 8.59071 14.2344 8.16719 14.2344C7.74367 14.2344 7.3375 14.4026 7.03803 14.7021C6.73855 15.0016 6.57031 15.4077 6.57031 15.8313Z" stroke="#CB691A" stroke-linecap="round" stroke-linejoin="round"/>
<path d="M15.1048 7.06651L14.4757 6.43734C14.4164 6.37795 14.3459 6.33083 14.2684 6.29869C14.1908 6.26655 14.1077 6.25 14.0238 6.25C13.9398 6.25 13.8567 6.26655 13.7792 6.29869C13.7016 6.33083 13.6312 6.37795 13.5718 6.43734L11.7655 8.24372C11.7061 8.30304 11.659 8.37349 11.6268 8.45103C11.5947 8.52858 11.5781 8.6117 11.5781 8.69564C11.5781 8.77958 11.5947 8.8627 11.6268 8.94024C11.659 9.01778 11.7061 9.08823 11.7655 9.14755L12.3953 9.77672C12.2386 10.5177 12.3256 11.2894 12.6432 11.9769C12.9608 12.6644 13.4921 13.2309 14.1579 13.5919C14.8237 13.9528 15.5883 14.089 16.3377 13.9801C17.0872 13.8711 17.7814 13.5229 18.3169 12.9873C18.8523 12.4517 19.2003 11.7575 19.3091 11.008C19.4179 10.2585 19.2815 9.49394 18.9204 8.82825C18.5593 8.16257 17.9927 7.6314 17.3051 7.31392C16.6175 6.99645 15.8458 6.90966 15.1048 7.06651Z" stroke="#CB691A" stroke-linecap="round" stroke-linejoin="round"/>
<path d="M14.2344 10.5031C14.2344 10.9266 14.4026 11.3328 14.7021 11.6323C15.0016 11.9318 15.4077 12.1 15.8313 12.1C16.2548 12.1 16.6609 11.9318 16.9604 11.6323C17.2599 11.3328 17.4281 10.9266 17.4281 10.5031C17.4281 10.0796 17.2599 9.67344 16.9604 9.37396C16.6609 9.07449 16.2548 8.90625 15.8313 8.90625C15.4077 8.90625 15.0016 9.07449 14.7021 9.37396C14.4026 9.67344 14.2344 10.0796 14.2344 10.5031Z" stroke="#CB691A" stroke-linecap="round" stroke-linejoin="round"/>
<path d="M8.16937 11.3631C8.02182 10.1354 4.65625 9.76625 4.65625 7.21125C4.65625 4.65625 6.41281 4.65625 8.00969 4.65625C9.60656 4.65625 12.076 5.806 12.7045 7.31537" stroke="#CB691A" stroke-linecap="round" stroke-linejoin="round"/>
</g>
<defs>
<clipPath id="clip0_5425_229598">
<rect width="16" height="16" fill="white" transform="translate(4 4)"/>
</clipPath>
</defs>
</svg>
 