<svg width="24" height="24" viewBox="0 0 24 24" fill="none" xmlns="http://www.w3.org/2000/svg">
<rect width="24" height="24" rx="2" fill="#EBFCFF"/>
<g clip-path="url(#clip0_5425_229606)">
<path d="M11.0391 7.46518C11.039 7.41075 11.0529 7.35721 11.0793 7.30964C11.1058 7.26207 11.1439 7.22206 11.1902 7.19339C11.2365 7.16472 11.2893 7.14835 11.3437 7.14583C11.3981 7.14332 11.4522 7.15474 11.5009 7.17902C12.6639 7.68009 13.926 7.90904 15.1909 7.84843C16.4562 7.90869 17.7185 7.6793 18.8816 7.17774C18.9304 7.15356 18.9846 7.14226 19.039 7.14491C19.0934 7.14756 19.1462 7.16407 19.1924 7.19287C19.2386 7.22167 19.2767 7.2618 19.303 7.30947C19.3293 7.35713 19.343 7.41073 19.3428 7.46518V18.2275C19.3428 18.2802 19.3298 18.3322 19.3048 18.3787C19.2798 18.4251 19.2437 18.4647 19.1997 18.4938C18.8229 18.7436 17.6578 19.344 15.1909 19.344C12.7241 19.344 11.559 18.7436 11.1821 18.4938C11.1381 18.4647 11.1021 18.4251 11.0771 18.3787C11.0521 18.3322 11.0391 18.2802 11.0391 18.2275V7.46518Z" stroke="#2F757F" stroke-linecap="round" stroke-linejoin="round"/>
<path d="M13.2812 6.5725C13.2812 6.06428 13.4831 5.57687 13.8425 5.21751C14.2019 4.85814 14.6893 4.65625 15.1975 4.65625C15.7057 4.65625 16.1931 4.85814 16.5525 5.21751C16.9119 5.57687 17.1137 6.06428 17.1137 6.5725" stroke="#2F757F" stroke-linecap="round" stroke-linejoin="round"/>
<path d="M9.12906 18.7075C9.12906 18.8769 9.06177 19.0394 8.94198 19.1592C8.82219 19.279 8.65972 19.3462 8.49031 19.3462C8.32091 19.3462 8.15844 19.279 8.03865 19.1592C7.91886 19.0394 7.85156 18.8769 7.85156 18.7075V7.52937C7.85156 7.35997 7.91886 7.1975 8.03865 7.07771C8.15844 6.95792 8.32091 6.89062 8.49031 6.89062C8.65972 6.89062 8.82219 6.95792 8.94198 7.07771C9.06177 7.1975 9.12906 7.35997 9.12906 7.52937V18.7075Z" stroke="#2F757F" stroke-linecap="round" stroke-linejoin="round"/>
<path d="M7.85 14.2344V15.5119H5.295C5.12559 15.5119 4.96312 15.4446 4.84334 15.3248C4.72355 15.205 4.65625 15.0425 4.65625 14.8731C4.65625 14.7037 4.72355 14.5412 4.84334 14.4215C4.96312 14.3017 5.12559 14.2344 5.295 14.2344H7.85Z" stroke="#2F757F" stroke-linecap="round" stroke-linejoin="round"/>
</g>
<defs>
<clipPath id="clip0_5425_229606">
<rect width="16" height="16" fill="white" transform="translate(4 4)"/>
</clipPath>
</defs>
</svg>
