<svg width="24" height="24" viewBox="0 0 24 24" fill="none" xmlns="http://www.w3.org/2000/svg">
<rect width="24" height="24" rx="12" fill="#F3F3F4"/>
<g clip-path="url(#clip0_5425_229578)">
<path d="M12.9375 5.00001C13.093 4.98006 13.2495 4.96963 13.4062 4.96876C14.1528 4.96677 14.8778 5.21944 15.4614 5.68505C16.0449 6.15066 16.4523 6.80136 16.6162 7.52973C16.7801 8.25809 16.6907 9.02057 16.3628 9.69127C16.0348 10.362 15.488 10.9008 14.8125 11.2188" stroke="#4F4F4F" stroke-linecap="round" stroke-linejoin="round"/>
<path d="M7.78125 19.0313C7.78125 17.5394 8.37388 16.1087 9.42877 15.0538C10.4837 13.9989 11.9144 13.4063 13.4063 13.4062C14.8981 13.4062 16.3288 13.9989 17.3837 15.0538C18.4386 16.1087 19.0313 17.5394 19.0313 19.0313" stroke="#4F4F4F" stroke-linecap="round" stroke-linejoin="round"/>
<path d="M10.5938 6.84375L10.125 5.90625H7.3125L6.84375 6.84375H5.90625C5.65761 6.84375 5.41915 6.94252 5.24334 7.11834C5.06752 7.29415 4.96875 7.53261 4.96875 7.78125V10.5938C4.96875 10.8424 5.06752 11.0808 5.24334 11.2567C5.41915 11.4325 5.65761 11.5313 5.90625 11.5313H11.5313C11.7799 11.5313 12.0183 11.4325 12.1942 11.2567C12.37 11.0808 12.4688 10.8424 12.4688 10.5938V7.78125C12.4688 7.53261 12.37 7.29415 12.1942 7.11834C12.0183 6.94252 11.7799 6.84375 11.5313 6.84375H10.5938Z" stroke="#4F4F4F" stroke-linecap="round" stroke-linejoin="round"/>
<path d="M7.54688 8.95234C7.54687 9.10665 7.57727 9.25944 7.63632 9.402C7.69537 9.54455 7.78192 9.67409 7.89102 9.78319C8.00013 9.8923 8.12966 9.97885 8.27222 10.0379C8.41478 10.097 8.56757 10.1273 8.72187 10.1273C8.87618 10.1273 9.02897 10.097 9.17153 10.0379C9.31409 9.97885 9.44362 9.8923 9.55273 9.78319C9.66183 9.67409 9.74838 9.54455 9.80743 9.402C9.86648 9.25944 9.89687 9.10665 9.89687 8.95234C9.89687 8.79804 9.86648 8.64525 9.80743 8.50269C9.74838 8.36013 9.66183 8.2306 9.55273 8.12149C9.44362 8.01238 9.31409 7.92583 9.17153 7.86679C9.02897 7.80774 8.87618 7.77734 8.72187 7.77734C8.56757 7.77734 8.41478 7.80774 8.27222 7.86679C8.12966 7.92583 8.00013 8.01238 7.89102 8.12149C7.78192 8.2306 7.69537 8.36013 7.63632 8.50269C7.57727 8.64525 7.54687 8.79804 7.54688 8.95234Z" stroke="#4F4F4F" stroke-linecap="round" stroke-linejoin="round"/>
</g>
<defs>
<clipPath id="clip0_5425_229578">
<rect width="16" height="16" fill="white" transform="translate(4 4)"/>
</clipPath>
</defs>
</svg>
