<svg width="24" height="24" viewBox="0 0 24 24" fill="none" xmlns="http://www.w3.org/2000/svg">
<g clip-path="url(#clip0_5425_233172)">
<path d="M4.65625 11.0437C4.65625 12.7378 5.32922 14.3625 6.52711 15.5604C7.72499 16.7583 9.34968 17.4312 11.0437 17.4312C12.7378 17.4312 14.3625 16.7583 15.5604 15.5604C16.7583 14.3625 17.4312 12.7378 17.4312 11.0437C17.4312 9.34968 16.7583 7.72499 15.5604 6.52711C14.3625 5.32922 12.7378 4.65625 11.0437 4.65625C9.34968 4.65625 7.72499 5.32922 6.52711 6.52711C5.32922 7.72499 4.65625 9.34968 4.65625 11.0437Z" stroke="#4F4F4F" stroke-linecap="round" stroke-linejoin="round"/>
<path d="M19.3418 19.3457L15.5547 15.5586" stroke="#4F4F4F" stroke-linecap="round" stroke-linejoin="round"/>
</g>
<defs>
<clipPath id="clip0_5425_233172">
<rect width="16" height="16" fill="white" transform="translate(4 4)"/>
</clipPath>
</defs>
</svg>
