<svg width="24" height="24" viewBox="0 0 24 24" fill="none" xmlns="http://www.w3.org/2000/svg">
<rect width="24" height="24" rx="2" fill="#FFF4EB"/>
<path d="M17.8127 5.84647C15.9789 5.04627 13.9976 4.63958 11.9969 4.65265C9.99721 4.64003 8.01709 5.04671 6.18426 5.84647C6.0121 5.9247 5.86624 6.05103 5.76424 6.21026C5.66224 6.36949 5.60846 6.55482 5.60939 6.74392V11.6233C5.6093 13.2099 6.09006 14.7592 6.98827 16.067C7.88649 17.3748 9.15998 18.3797 10.6408 18.9492L11.3268 19.213C11.7568 19.3879 12.2382 19.3879 12.6682 19.213L13.3542 18.9492C14.8348 18.3795 16.1081 17.3745 17.006 16.0667C17.904 14.759 18.3846 13.2097 18.3844 11.6233V6.74392C18.3856 6.55517 18.3323 6.37009 18.2309 6.2109C18.1295 6.05171 17.9843 5.92517 17.8127 5.84647Z" stroke="#A74A08" stroke-linecap="round" stroke-linejoin="round"/>
</svg>
