<svg width="24" height="24" viewBox="0 0 24 24" fill="none" xmlns="http://www.w3.org/2000/svg">
<rect width="24" height="24" rx="2" fill="#FFEBF8"/>
<g clip-path="url(#clip0_5425_229618)">
<path d="M4.93697 17.7082C4.75723 17.8879 4.65625 18.1317 4.65625 18.3859C4.65625 18.6401 4.75723 18.8839 4.93697 19.0636C5.11671 19.2434 5.36049 19.3443 5.61468 19.3443C5.86887 19.3443 6.11265 19.2434 6.2924 19.0636L17.9381 7.41729L16.5833 6.0625L4.93697 17.7082Z" stroke="#903470" stroke-linecap="round" stroke-linejoin="round"/>
<path d="M9.3125 7.83203L12.061 10.5806" stroke="#903470" stroke-linecap="round" stroke-linejoin="round"/>
<path d="M13.4204 9.2251L10.6719 6.47656" stroke="#903470" stroke-linecap="round" stroke-linejoin="round"/>
<path d="M8.22208 6.29092C8.04755 6.47163 7.95098 6.71365 7.95316 6.96487C7.95534 7.21609 8.05611 7.4564 8.23375 7.63404C8.4114 7.81168 8.65171 7.91245 8.90292 7.91463C9.15414 7.91681 9.39617 7.82024 9.57687 7.64571L10.4807 6.74252C10.6604 6.56244 10.7613 6.31833 10.761 6.0639C10.7608 5.80947 10.6595 5.56555 10.4794 5.38581C10.2993 5.20607 10.0552 5.10523 9.80081 5.10547C9.54638 5.10571 9.30246 5.20701 9.12272 5.38709L8.22208 6.29092Z" stroke="#903470" stroke-linecap="round" stroke-linejoin="round"/>
<path d="M17.7074 7.19146C17.7964 7.28045 17.902 7.35106 18.0183 7.39924C18.1345 7.44742 18.2591 7.47224 18.3849 7.47227C18.5108 7.4723 18.6354 7.44754 18.7516 7.39942C18.8679 7.35129 18.9736 7.28073 19.0626 7.19178C19.1515 7.10282 19.2222 6.9972 19.2703 6.88096C19.3185 6.76472 19.3433 6.64012 19.3434 6.51429C19.3434 6.38845 19.3186 6.26385 19.2705 6.14758C19.2224 6.03131 19.1518 5.92567 19.0629 5.83667L18.159 4.93284C17.9793 4.75318 17.7356 4.65228 17.4814 4.65234C17.2273 4.6524 16.9836 4.75341 16.8039 4.93316C16.6243 5.1129 16.5234 5.35664 16.5234 5.61078C16.5235 5.86491 16.6245 6.10861 16.8042 6.28826L17.7074 7.19146Z" stroke="#903470" stroke-linecap="round" stroke-linejoin="round"/>
</g>
<defs>
<clipPath id="clip0_5425_229618">
<rect width="16" height="16" fill="white" transform="translate(4 4)"/>
</clipPath>
</defs>
</svg>
